<svg width="171" height="210" viewBox="0 0 171 210" fill="none" xmlns="http://www.w3.org/2000/svg">
<circle cx="85.5" cy="124.5" r="78" stroke="#E19283" stroke-width="15"/>
<path d="M125 39.5C125 61.3152 107.315 48 85.5 48C63.6848 48 46 61.3152 46 39.5C46 17.6848 63.6848 0 85.5 0C107.315 0 125 17.6848 125 39.5Z" fill="#E19283"/>
<path d="M75 112C75 103.716 68.5081 97 60.5 97C52.4919 97 46 103.716 46 112" stroke="#E19283" stroke-width="10" stroke-linecap="round"/>
<path d="M125 112C125 103.716 118.508 97 110.5 97C102.492 97 96 103.716 96 112" stroke="#E19283" stroke-width="10" stroke-linecap="round"/>
<path d="M71 138C71 146.284 77.4919 153 85.5 153C93.5081 153 100 146.284 100 138" stroke="#E19283" stroke-width="10" stroke-linecap="round"/>
</svg>
